<?xml version="1.0" encoding="UTF-8"?>
<svg width="671px" height="225px" viewBox="0 0 671 225" version="1.1" xmlns="http://www.w3.org/2000/svg" xmlns:xlink="http://www.w3.org/1999/xlink">
    <!-- Generator: Sketch 51 (57462) - http://www.bohemiancoding.com/sketch -->
    <title>Eefio outlines</title>
    <desc>Created with Sketch.</desc>
    <defs></defs>
    <g id="Page-1" stroke="none" stroke-width="1" fill="none" fill-rule="evenodd">
        <g id="Artboard" transform="translate(-169.000000, -358.000000)" fill="#ffffff">
            <path d="M169.444,579 L169.444,377.4 L321.508,377.4 L321.508,425.208 L225.028,425.208 L225.028,456.024 L310.276,456.024 L310.276,497.496 L225.028,497.496 L225.028,531.192 L322.372,531.192 L322.372,579 L169.444,579 Z M327.652,499.8 C327.652,448.248 365.092,417.72 408.58,417.72 C454.084,417.72 482.884,445.656 482.884,489.432 C482.884,497.208 482.02,506.424 480.868,512.472 L382.66,512.472 C385.54,532.056 395.332,540.696 413.476,540.696 C428.452,540.696 442.564,536.088 455.812,528.312 L477.7,560.856 C456.964,576.12 433.348,582.744 408.292,582.744 C363.364,582.744 327.652,552.504 327.652,499.8 Z M410.308,455.16 C397.636,455.16 386.692,464.088 383.236,484.536 L432.484,484.536 C432.484,467.832 426.148,455.16 410.308,455.16 Z M505.444,579 L505.444,460.056 L482.692,460.056 L482.692,424.632 L505.444,424.632 L505.444,420.6 C505.444,378.264 528.772,358.68 581.764,358.68 C607.396,358.68 637.348,365.592 657.796,376.824 L639.364,410.808 C626.404,404.184 605.668,397.56 588.1,397.56 C566.212,397.56 559.3,404.76 559.3,421.752 L559.3,424.92 L596.164,424.92 L596.164,460.056 L559.3,460.056 L559.3,579 L505.444,579 Z M612.58,579 L612.58,424.92 L666.436,424.92 L666.436,579 L612.58,579 Z M677.188,498.936 C677.188,450.552 712.036,417.72 758.404,417.72 C804.484,417.72 839.332,450.552 839.332,498.936 C839.332,550.776 806.5,582.744 758.404,582.744 C709.732,582.744 677.188,550.776 677.188,498.936 Z M731.62,499.224 C731.62,526.296 740.548,543.576 758.404,543.576 C775.972,543.576 784.9,526.296 784.9,499.224 C784.9,473.592 774.82,456.888 758.404,456.888 C741.7,456.888 731.62,473.592 731.62,499.224 Z" id="Eefio-outlines"></path>
        </g>
    </g>
</svg>